<?xml version="1.0" encoding="UTF-8" standalone="no"?>
<!-- Created with Inkscape (http://www.inkscape.org/) -->

<svg
   width="210mm"
   height="297mm"
   viewBox="0 0 210 297"
   version="1.1"
   id="svg1"
   inkscape:version="1.3.2 (091e20e, 2023-11-25)"
   sodipodi:docname="simonyi-frontpage-bg.svg"
   xmlns:inkscape="http://www.inkscape.org/namespaces/inkscape"
   xmlns:sodipodi="http://sodipodi.sourceforge.net/DTD/sodipodi-0.dtd"
   xmlns="http://www.w3.org/2000/svg"
   xmlns:svg="http://www.w3.org/2000/svg">
  <sodipodi:namedview
     id="namedview1"
     pagecolor="#505050"
     bordercolor="#eeeeee"
     borderopacity="1"
     inkscape:showpageshadow="0"
     inkscape:pageopacity="0"
     inkscape:pagecheckerboard="0"
     inkscape:deskcolor="#505050"
     inkscape:document-units="mm"
     inkscape:zoom="0.90871639"
     inkscape:cx="296.57218"
     inkscape:cy="583.7905"
     inkscape:window-width="1392"
     inkscape:window-height="1212"
     inkscape:window-x="2240"
     inkscape:window-y="25"
     inkscape:window-maximized="0"
     inkscape:current-layer="layer1" />
  <defs
     id="defs1" />
  <g
     inkscape:label="Layer 1"
     inkscape:groupmode="layer"
     id="layer1">
    <rect
       style="fill:#231f20;stroke-width:9.25885;stroke-linecap:round;stroke-linejoin:round;stroke-dasharray:9.25885, 18.5177;fill-opacity:1"
       id="rect1"
       width="35"
       height="296.99814"
       x="0"
       y="0" />
    <g
       id="g31"
       style="clip-rule:evenodd;fill-rule:evenodd;stroke-linejoin:round;stroke-miterlimit:2"
       transform="matrix(0.1959943,0,0,0.1959943,-8.368529,220.85735)">
      <g
         transform="translate(132.22,190.536)"
         id="g27">
            <path
   d="m 0,-151.271 c -41.705,0 -75.635,33.93 -75.635,75.635 C -75.635,-33.93 -41.705,0 0,0 c 41.706,0 75.636,-33.93 75.636,-75.636 0,-41.705 -33.93,-75.635 -75.636,-75.635 m 0,8.104 c 37.297,0 67.532,30.235 67.532,67.531 0,37.297 -30.235,67.532 -67.532,67.532 -37.296,0 -67.531,-30.235 -67.531,-67.532 0,-37.296 30.235,-67.531 67.531,-67.531"
   style="fill:#62bc47;fill-rule:nonzero"
   id="path26" />

        </g>
      <g
         transform="translate(110.314,109.764)"
         id="g28">
            <path
   d="m 0,-33.28 c 9.175,0 16.64,7.465 16.64,16.64 C 16.64,-7.465 9.175,0 0,0 c -9.175,0 -16.64,-7.465 -16.64,-16.64 0,-9.175 7.465,-16.64 16.64,-16.64 m 0,8.104 c -4.714,0 -8.536,3.822 -8.536,8.536 0,4.714 3.822,8.536 8.536,8.536 4.714,0 8.536,-3.822 8.536,-8.536 0,-4.714 -3.822,-8.536 -8.536,-8.536 m 87.554,12.433 H 12.723 c -2.153,0 -3.897,-1.744 -3.897,-3.896 0,-2.153 1.744,-3.897 3.897,-3.897 h 74.831 c 2.152,0 3.897,1.744 3.897,3.897 0,2.152 -1.745,3.896 -3.897,3.896"
   style="fill:#62bc47;fill-rule:nonzero"
   id="path27" />

        </g>
      <g
         transform="translate(139.385,135.17)"
         id="g29">
            <path
   d="m 0,6.895 h -70.422 c -1.904,0 -3.448,-1.543 -3.448,-3.447 C -73.87,1.543 -72.326,0 -70.422,0 H 0 C 1.904,0 3.447,1.543 3.447,3.448 3.447,5.352 1.904,6.895 0,6.895"
   style="fill:#62bc47;fill-rule:nonzero"
   id="path28" />

        </g>
      <g
         transform="translate(152.015,154.925)"
         id="g30">
            <path
   d="m 0,-33.279 c -9.175,0 -16.64,7.464 -16.64,16.64 C -16.64,-7.465 -9.175,0 0,0 9.175,0 16.64,-7.465 16.64,-16.639 16.64,-25.815 9.175,-33.279 0,-33.279 m 0,8.104 c 4.714,0 8.536,3.821 8.536,8.536 0,4.714 -3.822,8.536 -8.536,8.536 -4.714,0 -8.536,-3.822 -8.536,-8.536 0,-4.715 3.822,-8.536 8.536,-8.536"
   style="fill:#62bc47;fill-rule:nonzero"
   id="path29" />

        </g>
    </g>
  </g>
</svg>
